<svg width="88" height="88" viewBox="0 0 88 88" fill="none" xmlns="http://www.w3.org/2000/svg">
<g filter="url(#filter0_d_206_9)">
<g filter="url(#filter1_d_206_9)">
<circle cx="44" cy="40" r="37" fill="#2C96FB"/>
</g>
<path d="M63.2 26.4286C63.2 24.9888 62.6311 23.608 61.6184 22.59C60.6057 21.5719 59.2322 21 57.8 21H25.4C23.9678 21 22.5943 21.5719 21.5816 22.59C20.5689 23.608 20 24.9888 20 26.4286V53.5714C20 55.0112 20.5689 56.392 21.5816 57.41C22.5943 58.4281 23.9678 59 25.4 59H57.8C59.2322 59 60.6057 58.4281 61.6184 57.41C62.6311 56.392 63.2 55.0112 63.2 53.5714V44.5247L74 53.5714V26.4286L63.2 35.4753V26.4286ZM52.4 42.7143H44.3V50.8571H38.9V42.7143H30.8V37.2857H38.9V29.1429H44.3V37.2857H52.4V42.7143Z" fill="#000027"/>
</g>
<defs>
<filter id="filter0_d_206_9" x="0" y="0" width="88" height="88" filterUnits="userSpaceOnUse" color-interpolation-filters="sRGB">
<feFlood flood-opacity="0" result="BackgroundImageFix"/>
<feColorMatrix in="SourceAlpha" type="matrix" values="0 0 0 0 0 0 0 0 0 0 0 0 0 0 0 0 0 0 127 0" result="hardAlpha"/>
<feOffset dy="4"/>
<feGaussianBlur stdDeviation="3.5"/>
<feComposite in2="hardAlpha" operator="out"/>
<feColorMatrix type="matrix" values="0 0 0 0 0 0 0 0 0 0 0 0 0 0 0 0 0 0 0.5 0"/>
<feBlend mode="normal" in2="BackgroundImageFix" result="effect1_dropShadow_206_9"/>
<feBlend mode="normal" in="SourceGraphic" in2="effect1_dropShadow_206_9" result="shape"/>
</filter>
<filter id="filter1_d_206_9" x="3" y="3" width="82" height="82" filterUnits="userSpaceOnUse" color-interpolation-filters="sRGB">
<feFlood flood-opacity="0" result="BackgroundImageFix"/>
<feColorMatrix in="SourceAlpha" type="matrix" values="0 0 0 0 0 0 0 0 0 0 0 0 0 0 0 0 0 0 127 0" result="hardAlpha"/>
<feOffset dy="4"/>
<feGaussianBlur stdDeviation="2"/>
<feComposite in2="hardAlpha" operator="out"/>
<feColorMatrix type="matrix" values="0 0 0 0 0 0 0 0 0 0 0 0 0 0 0 0 0 0 0.25 0"/>
<feBlend mode="normal" in2="BackgroundImageFix" result="effect1_dropShadow_206_9"/>
<feBlend mode="normal" in="SourceGraphic" in2="effect1_dropShadow_206_9" result="shape"/>
</filter>
</defs>
</svg>
