<?xml version="1.0" encoding="UTF-8"?><svg id="Capa_1" xmlns="http://www.w3.org/2000/svg" viewBox="0 0 1200 1200"><defs><style>.cls-1{fill:#fff;}.cls-2{fill:#000027;}.cls-3{fill:#5df99c;}</style></defs><path class="cls-2" d="M1105.69,550.8c0-279.41-226.5-505.91-505.91-505.91-118.05,0-226.65,40.43-312.72,108.2-92.35,72.72-158.76,176.91-183.05,296.4-6.65,32.74-10.15,66.61-10.15,101.31,0,53.43,8.28,104.92,23.63,153.26,49.57,156.15,172.87,279.46,329.02,329.02,48.34,15.36,99.83,23.63,153.26,23.63,25.77,0,51.08-1.95,75.82-5.66v.02c.09-.02,.18-.04,.28-.05,8.47-1.28,16.88-2.76,25.21-4.45-4.87,33.51-12.9,66-23.78,97.16-2.39,6.86,4.43,13.36,11.17,10.64,154.37-62.4,251.7-157.01,313.03-252.93,110.76-173.18,104.18-350.64,104.18-350.64Z"/><path class="cls-1" d="M573.43,633.79c0-59.46,.07-118.93-.12-178.39-.02-5.12,1.22-6.53,6.39-6.4,15.14,.37,30.31,.35,45.45,0,4.87-.11,6.19,1.05,6.17,6.07-.2,58.8-.13,117.61-.13,176.41s-.09,120.68,.14,181.02c.02,5.57-1.44,6.88-6.85,6.74-15.14-.4-30.31-.34-45.45-.02-4.66,.1-5.72-1.15-5.71-5.74,.17-59.9,.11-119.8,.11-179.7Z"/><path class="cls-3" d="M764.74,819.11c-22.63-.08-41.23-18.67-41.07-41.05,.16-22.44,18.84-40.67,41.57-40.56,22.85,.11,41.37,18.33,41.4,40.73,.03,22.69-18.7,40.96-41.91,40.88Z"/><path class="cls-1" d="M642.16,341.49c-.06,21.2-18.25,38.95-39.89,38.92-22.12-.04-40.65-17.8-40.69-39.01-.04-22.43,17.99-39.85,41.1-39.71,22.19,.14,39.55,17.64,39.49,39.8Z"/></svg>