<svg width="1565" height="522" viewBox="0 0 1565 522" fill="none" xmlns="http://www.w3.org/2000/svg">
<path d="M433.05 499C432.36 499 432.015 498.617 432.015 497.85L441.675 419.65C441.828 418.883 442.25 418.5 442.94 418.5H469.965C477.018 418.5 482.577 420.263 486.64 423.79C490.703 427.317 492.735 432.108 492.735 438.165C492.735 438.855 492.658 439.967 492.505 441.5L488.25 476C487.407 482.977 484.417 488.573 479.28 492.79C474.22 496.93 467.818 499 460.075 499H433.05ZM443.86 488.995C443.86 489.302 443.975 489.455 444.205 489.455H461.685C465.978 489.455 469.582 488.113 472.495 485.43C475.408 482.67 477.172 478.99 477.785 474.39L481.58 443.11C481.657 442.497 481.695 441.615 481.695 440.465C481.695 436.555 480.583 433.527 478.36 431.38C476.213 429.157 473.147 428.045 469.16 428.045H451.795C451.488 428.045 451.335 428.198 451.335 428.505L443.86 488.995ZM514.198 431.265C512.281 431.265 510.748 430.69 509.598 429.54C508.448 428.39 507.873 426.895 507.873 425.055C507.873 422.602 508.639 420.57 510.173 418.96C511.783 417.35 513.738 416.545 516.038 416.545C517.954 416.545 519.488 417.12 520.638 418.27C521.788 419.343 522.363 420.838 522.363 422.755C522.363 425.132 521.558 427.163 519.948 428.85C518.338 430.46 516.421 431.265 514.198 431.265ZM501.433 498.885C500.666 498.885 500.359 498.502 500.513 497.735L507.413 441.615C507.413 441.308 507.528 441.04 507.758 440.81C507.988 440.58 508.256 440.465 508.563 440.465H517.073C517.763 440.465 518.108 440.848 518.108 441.615L511.208 497.735C511.054 498.502 510.633 498.885 509.943 498.885H501.433ZM569.751 441.615C569.904 440.848 570.326 440.465 571.016 440.465H579.526C580.293 440.465 580.599 440.848 580.446 441.615L573.776 496.01C572.626 505.287 569.253 511.918 563.656 515.905C558.136 519.892 551.083 521.885 542.496 521.885C541.269 521.885 539.429 521.808 536.976 521.655C536.286 521.578 535.979 521.157 536.056 520.39L537.321 512.455C537.398 512.072 537.551 511.765 537.781 511.535C538.088 511.382 538.394 511.343 538.701 511.42C539.774 511.497 541.308 511.535 543.301 511.535C549.588 511.535 554.264 510.308 557.331 507.855C560.474 505.478 562.429 501.415 563.196 495.665L563.426 493.595C563.426 493.135 563.234 493.058 562.851 493.365C559.324 497.122 554.533 499 548.476 499C543.646 499 539.429 497.697 535.826 495.09C532.223 492.483 529.999 488.65 529.156 483.59C528.926 481.98 528.811 480.255 528.811 478.415C528.811 475.962 529.003 473.01 529.386 469.56C530.153 463.427 531.341 458.52 532.951 454.84C534.944 450.24 537.896 446.56 541.806 443.8C545.793 440.963 550.239 439.545 555.146 439.545C561.203 439.545 565.764 441.462 568.831 445.295C569.061 445.678 569.253 445.64 569.406 445.18L569.751 441.615ZM564.346 480.255C564.729 479.105 565.036 477.878 565.266 476.575C565.573 475.272 565.956 472.895 566.416 469.445C566.876 465.305 567.106 462.66 567.106 461.51C567.106 460.897 567.029 459.977 566.876 458.75C566.646 455.913 565.611 453.613 563.771 451.85C561.931 450.01 559.439 449.09 556.296 449.09C553.229 449.09 550.508 450.01 548.131 451.85C545.831 453.613 544.068 455.913 542.841 458.75C541.614 461.28 540.771 464.845 540.311 469.445C539.928 472.895 539.736 475.348 539.736 476.805C539.736 478.262 539.851 479.412 540.081 480.255C540.464 483.092 541.653 485.43 543.646 487.27C545.639 489.033 548.169 489.915 551.236 489.915C554.456 489.915 557.216 489.033 559.516 487.27C561.816 485.43 563.426 483.092 564.346 480.255ZM603.255 431.265C601.339 431.265 599.805 430.69 598.655 429.54C597.505 428.39 596.93 426.895 596.93 425.055C596.93 422.602 597.697 420.57 599.23 418.96C600.84 417.35 602.795 416.545 605.095 416.545C607.012 416.545 608.545 417.12 609.695 418.27C610.845 419.343 611.42 420.838 611.42 422.755C611.42 425.132 610.615 427.163 609.005 428.85C607.395 430.46 605.479 431.265 603.255 431.265ZM590.49 498.885C589.724 498.885 589.417 498.502 589.57 497.735L596.47 441.615C596.47 441.308 596.585 441.04 596.815 440.81C597.045 440.58 597.314 440.465 597.62 440.465H606.13C606.82 440.465 607.165 440.848 607.165 441.615L600.265 497.735C600.112 498.502 599.69 498.885 599 498.885H590.49ZM651.103 448.4C650.95 449.167 650.528 449.55 649.838 449.55H637.763C637.457 449.55 637.303 449.703 637.303 450.01L633.508 480.485C633.432 481.022 633.393 481.75 633.393 482.67C633.393 485.123 634.007 486.887 635.233 487.96C636.537 489.033 638.492 489.57 641.098 489.57H644.318C644.702 489.57 644.97 489.685 645.123 489.915C645.353 490.145 645.43 490.413 645.353 490.72L644.433 497.85C644.433 498.617 644.05 499 643.283 499C640.83 499.153 639.105 499.23 638.108 499.23C632.972 499.23 629.1 498.425 626.493 496.815C623.887 495.128 622.583 492.1 622.583 487.73C622.583 487.04 622.66 485.928 622.813 484.395L627.068 450.01C627.068 449.703 626.915 449.55 626.608 449.55H619.823C619.057 449.55 618.75 449.167 618.903 448.4L619.708 441.615C619.862 440.848 620.283 440.465 620.973 440.465H627.758C628.065 440.465 628.218 440.312 628.218 440.005L629.943 426.435C630.097 425.668 630.518 425.285 631.208 425.285H639.258C639.565 425.285 639.795 425.4 639.948 425.63C640.178 425.86 640.255 426.128 640.178 426.435L638.568 440.005C638.492 440.082 638.492 440.197 638.568 440.35C638.645 440.427 638.76 440.465 638.913 440.465H650.988C651.755 440.465 652.062 440.848 651.908 441.615L651.103 448.4ZM699.92 441.615C700.073 440.848 700.495 440.465 701.185 440.465H709.695C710.462 440.465 710.768 440.848 710.615 441.615L703.715 497.85C703.715 498.157 703.6 498.425 703.37 498.655C703.14 498.885 702.833 499 702.45 499H694.055C693.365 499 693.02 498.617 693.02 497.85L693.825 491.41C693.902 491.18 693.863 491.065 693.71 491.065C693.557 490.988 693.442 491.065 693.365 491.295C689.378 497.045 684.012 499.92 677.265 499.92C672.358 499.92 668.257 498.425 664.96 495.435C661.663 492.445 659.67 488.458 658.98 483.475C658.827 481.788 658.75 480.523 658.75 479.68C658.75 477.533 659.018 474.237 659.555 469.79C659.938 466.493 660.36 463.695 660.82 461.395C661.357 459.095 662.047 456.948 662.89 454.955C664.653 450.432 667.528 446.752 671.515 443.915C675.502 441.002 680.063 439.545 685.2 439.545C691.947 439.545 696.432 442.267 698.655 447.71C698.732 447.94 698.808 448.055 698.885 448.055C699.038 447.978 699.153 447.825 699.23 447.595L699.92 441.615ZM694.17 480.83C694.707 479.603 695.128 478.3 695.435 476.92C695.742 475.463 696.087 473.125 696.47 469.905C696.93 466.685 697.16 463.963 697.16 461.74C697.16 460.973 697.083 459.9 696.93 458.52C696.547 455.76 695.435 453.498 693.595 451.735C691.832 449.972 689.455 449.09 686.465 449.09C683.322 449.09 680.523 449.972 678.07 451.735C675.693 453.498 674.045 455.798 673.125 458.635C672.588 459.785 672.167 461.05 671.86 462.43C671.553 463.81 671.17 466.225 670.71 469.675C670.25 473.662 670.02 476.307 670.02 477.61C670.02 478.683 670.135 479.757 670.365 480.83C670.595 483.667 671.707 485.967 673.7 487.73C675.693 489.493 678.262 490.375 681.405 490.375C684.472 490.375 687.078 489.493 689.225 487.73C691.448 485.89 693.097 483.59 694.17 480.83ZM720.293 499C719.526 499 719.22 498.617 719.373 497.85L728.918 419.65C729.071 418.883 729.493 418.5 730.183 418.5H738.693C739.46 418.5 739.766 418.883 739.613 419.65L730.068 497.85C729.915 498.617 729.493 499 728.803 499H720.293ZM793.994 500.035C786.634 500.035 780.769 498.003 776.399 493.94C772.029 489.877 769.844 484.395 769.844 477.495C769.844 476.728 769.92 475.425 770.074 473.585L773.754 443.8C774.367 438.587 776.054 434.025 778.814 430.115C781.574 426.128 785.139 423.062 789.509 420.915C793.879 418.692 798.747 417.58 804.114 417.58C811.55 417.58 817.454 419.535 821.824 423.445C826.194 427.355 828.379 432.645 828.379 439.315C828.379 440.082 828.302 441.308 828.149 442.995V443.11C827.995 443.953 827.574 444.375 826.884 444.375L818.374 444.835C817.607 444.835 817.262 444.49 817.339 443.8V443.455C817.492 442.228 817.569 441.347 817.569 440.81C817.569 436.67 816.227 433.373 813.544 430.92C810.937 428.39 807.41 427.125 802.964 427.125C798.057 427.125 793.879 428.62 790.429 431.61C787.055 434.6 785.062 438.548 784.449 443.455L780.654 474.045C780.577 474.582 780.539 475.387 780.539 476.46C780.539 480.677 781.842 484.05 784.449 486.58C787.055 489.11 790.659 490.375 795.259 490.375C800.165 490.375 804.305 488.88 807.679 485.89C811.052 482.9 813.045 478.952 813.659 474.045V473.815C813.812 473.125 814.234 472.78 814.924 472.78L823.319 473.24C824.085 473.24 824.392 473.623 824.239 474.39C823.625 479.45 821.939 483.935 819.179 487.845C816.495 491.678 812.969 494.668 808.599 496.815C804.229 498.962 799.36 500.035 793.994 500.035ZM858.381 499.92C852.861 499.92 848.223 498.502 844.466 495.665C840.786 492.752 838.448 488.727 837.451 483.59C836.991 481.367 836.761 478.798 836.761 475.885C836.761 473.738 836.876 471.63 837.106 469.56C837.873 463.963 839.099 459.363 840.786 455.76C843.009 450.7 846.344 446.752 850.791 443.915C855.238 441.002 860.298 439.545 865.971 439.545C871.338 439.545 875.823 441.002 879.426 443.915C883.029 446.752 885.368 450.662 886.441 455.645C886.901 457.792 887.131 460.245 887.131 463.005C887.131 465.075 887.016 467.222 886.786 469.445C886.173 474.812 884.946 479.527 883.106 483.59C880.806 488.727 877.471 492.752 873.101 495.665C868.731 498.502 863.824 499.92 858.381 499.92ZM859.531 490.375C862.598 490.375 865.358 489.532 867.811 487.845C870.264 486.082 872.143 483.628 873.446 480.485C874.673 477.188 875.516 473.585 875.976 469.675C876.283 466.302 876.436 463.925 876.436 462.545C876.436 461.548 876.359 460.36 876.206 458.98C875.593 455.837 874.251 453.422 872.181 451.735C870.188 449.972 867.619 449.09 864.476 449.09C861.409 449.09 858.649 449.972 856.196 451.735C853.743 453.422 851.826 455.837 850.446 458.98C849.373 461.587 848.529 465.152 847.916 469.675C847.686 471.745 847.571 473.738 847.571 475.655C847.571 477.495 847.686 479.105 847.916 480.485C848.376 483.552 849.641 485.967 851.711 487.73C853.781 489.493 856.388 490.375 859.531 490.375ZM963.501 439.66C968.561 439.66 972.509 441.078 975.346 443.915C978.183 446.752 979.601 450.738 979.601 455.875C979.601 456.565 979.524 457.753 979.371 459.44L974.656 497.85C974.503 498.617 974.081 499 973.391 499H964.996C964.229 499 963.923 498.617 964.076 497.85L968.446 461.74C968.523 461.203 968.561 460.398 968.561 459.325C968.561 456.182 967.679 453.728 965.916 451.965C964.229 450.125 961.853 449.205 958.786 449.205C955.336 449.205 952.384 450.317 949.931 452.54C947.554 454.763 946.136 457.753 945.676 461.51L941.191 497.85C941.038 498.617 940.616 499 939.926 499H931.531C930.764 499 930.458 498.617 930.611 497.85L934.981 461.74C935.058 461.203 935.096 460.398 935.096 459.325C935.096 456.182 934.214 453.728 932.451 451.965C930.764 450.125 928.388 449.205 925.321 449.205C921.871 449.205 918.996 450.317 916.696 452.54C914.396 454.763 913.016 457.753 912.556 461.51L908.071 497.85C907.918 498.617 907.496 499 906.806 499H898.296C897.529 499 897.223 498.617 897.376 497.85L904.276 441.615C904.429 440.848 904.851 440.465 905.541 440.465H913.936C914.319 440.465 914.588 440.58 914.741 440.81C914.971 441.04 915.048 441.308 914.971 441.615L914.511 445.525C914.434 445.678 914.434 445.793 914.511 445.87C914.664 445.947 914.818 445.908 914.971 445.755C918.804 441.692 923.826 439.66 930.036 439.66C933.793 439.66 936.936 440.427 939.466 441.96C941.996 443.417 943.798 445.602 944.871 448.515C945.101 448.822 945.331 448.822 945.561 448.515C947.631 445.525 950.238 443.302 953.381 441.845C956.524 440.388 959.898 439.66 963.501 439.66ZM1055.59 439.66C1060.65 439.66 1064.6 441.078 1067.44 443.915C1070.27 446.752 1071.69 450.738 1071.69 455.875C1071.69 456.565 1071.61 457.753 1071.46 459.44L1066.75 497.85C1066.59 498.617 1066.17 499 1065.48 499H1057.09C1056.32 499 1056.01 498.617 1056.17 497.85L1060.54 461.74C1060.61 461.203 1060.65 460.398 1060.65 459.325C1060.65 456.182 1059.77 453.728 1058.01 451.965C1056.32 450.125 1053.94 449.205 1050.88 449.205C1047.43 449.205 1044.47 450.317 1042.02 452.54C1039.64 454.763 1038.23 457.753 1037.77 461.51L1033.28 497.85C1033.13 498.617 1032.71 499 1032.02 499H1023.62C1022.85 499 1022.55 498.617 1022.7 497.85L1027.07 461.74C1027.15 461.203 1027.19 460.398 1027.19 459.325C1027.19 456.182 1026.3 453.728 1024.54 451.965C1022.85 450.125 1020.48 449.205 1017.41 449.205C1013.96 449.205 1011.09 450.317 1008.79 452.54C1006.49 454.763 1005.11 457.753 1004.65 461.51L1000.16 497.85C1000.01 498.617 999.586 499 998.896 499H990.386C989.619 499 989.312 498.617 989.466 497.85L996.366 441.615C996.519 440.848 996.941 440.465 997.631 440.465H1006.03C1006.41 440.465 1006.68 440.58 1006.83 440.81C1007.06 441.04 1007.14 441.308 1007.06 441.615L1006.6 445.525C1006.52 445.678 1006.52 445.793 1006.6 445.87C1006.75 445.947 1006.91 445.908 1007.06 445.755C1010.89 441.692 1015.92 439.66 1022.13 439.66C1025.88 439.66 1029.03 440.427 1031.56 441.96C1034.09 443.417 1035.89 445.602 1036.96 448.515C1037.19 448.822 1037.42 448.822 1037.65 448.515C1039.72 445.525 1042.33 443.302 1045.47 441.845C1048.61 440.388 1051.99 439.66 1055.59 439.66ZM1122.27 441.615C1122.27 441.308 1122.38 441.04 1122.61 440.81C1122.84 440.58 1123.15 440.465 1123.53 440.465H1131.81C1132.19 440.465 1132.46 440.58 1132.62 440.81C1132.85 441.04 1132.92 441.308 1132.85 441.615L1125.95 497.85C1125.79 498.617 1125.37 499 1124.68 499H1116.29C1115.52 499 1115.21 498.617 1115.37 497.85L1115.83 493.595C1115.9 493.442 1115.86 493.365 1115.71 493.365C1115.63 493.288 1115.52 493.327 1115.37 493.48C1111.84 497.697 1106.97 499.805 1100.76 499.805C1095.62 499.805 1091.33 498.387 1087.88 495.55C1084.43 492.713 1082.71 488.727 1082.71 483.59C1082.71 482.363 1082.74 481.443 1082.82 480.83L1087.65 441.615C1087.8 440.848 1088.23 440.465 1088.92 440.465H1097.31C1097.62 440.465 1097.85 440.58 1098 440.81C1098.23 441.04 1098.31 441.308 1098.23 441.615L1093.86 477.38C1093.78 477.917 1093.75 478.683 1093.75 479.68C1093.75 482.977 1094.63 485.583 1096.39 487.5C1098.15 489.34 1100.68 490.26 1103.98 490.26C1107.74 490.26 1110.84 489.11 1113.3 486.81C1115.83 484.433 1117.32 481.29 1117.78 477.38L1122.27 441.615ZM1174.07 439.66C1179.59 439.66 1183.88 441.193 1186.95 444.26C1190.09 447.25 1191.66 451.352 1191.66 456.565C1191.66 457.255 1191.59 458.367 1191.43 459.9L1186.83 497.85C1186.76 498.157 1186.6 498.425 1186.37 498.655C1186.14 498.885 1185.88 499 1185.57 499H1177.06C1176.37 499 1176.02 498.617 1176.02 497.85L1180.51 462.085C1180.59 461.625 1180.62 460.935 1180.62 460.015C1180.62 456.795 1179.7 454.188 1177.86 452.195C1176.02 450.202 1173.49 449.205 1170.27 449.205C1166.67 449.205 1163.6 450.393 1161.07 452.77C1158.62 455.147 1157.16 458.213 1156.7 461.97L1152.33 497.85C1152.18 498.617 1151.76 499 1151.07 499H1142.56C1141.79 499 1141.49 498.617 1141.64 497.85L1148.54 441.615C1148.69 440.848 1149.11 440.465 1149.8 440.465H1158.2C1158.58 440.465 1158.85 440.58 1159 440.81C1159.23 441.04 1159.31 441.308 1159.23 441.615L1158.66 445.755C1158.66 445.908 1158.7 446.023 1158.77 446.1C1158.93 446.177 1159.04 446.138 1159.12 445.985C1162.8 441.768 1167.78 439.66 1174.07 439.66ZM1216.78 431.265C1214.86 431.265 1213.33 430.69 1212.18 429.54C1211.03 428.39 1210.45 426.895 1210.45 425.055C1210.45 422.602 1211.22 420.57 1212.75 418.96C1214.36 417.35 1216.32 416.545 1218.62 416.545C1220.53 416.545 1222.07 417.12 1223.22 418.27C1224.37 419.343 1224.94 420.838 1224.94 422.755C1224.94 425.132 1224.14 427.163 1222.53 428.85C1220.92 430.46 1219 431.265 1216.78 431.265ZM1204.01 498.885C1203.24 498.885 1202.94 498.502 1203.09 497.735L1209.99 441.615C1209.99 441.308 1210.11 441.04 1210.34 440.81C1210.57 440.58 1210.83 440.465 1211.14 440.465H1219.65C1220.34 440.465 1220.69 440.848 1220.69 441.615L1213.79 497.735C1213.63 498.502 1213.21 498.885 1212.52 498.885H1204.01ZM1264.62 448.4C1264.47 449.167 1264.05 449.55 1263.36 449.55H1251.28C1250.98 449.55 1250.82 449.703 1250.82 450.01L1247.03 480.485C1246.95 481.022 1246.91 481.75 1246.91 482.67C1246.91 485.123 1247.53 486.887 1248.75 487.96C1250.06 489.033 1252.01 489.57 1254.62 489.57H1257.84C1258.22 489.57 1258.49 489.685 1258.64 489.915C1258.87 490.145 1258.95 490.413 1258.87 490.72L1257.95 497.85C1257.95 498.617 1257.57 499 1256.8 499C1254.35 499.153 1252.63 499.23 1251.63 499.23C1246.49 499.23 1242.62 498.425 1240.01 496.815C1237.41 495.128 1236.1 492.1 1236.1 487.73C1236.1 487.04 1236.18 485.928 1236.33 484.395L1240.59 450.01C1240.59 449.703 1240.44 449.55 1240.13 449.55H1233.34C1232.58 449.55 1232.27 449.167 1232.42 448.4L1233.23 441.615C1233.38 440.848 1233.8 440.465 1234.49 440.465H1241.28C1241.59 440.465 1241.74 440.312 1241.74 440.005L1243.46 426.435C1243.62 425.668 1244.04 425.285 1244.73 425.285H1252.78C1253.09 425.285 1253.32 425.4 1253.47 425.63C1253.7 425.86 1253.78 426.128 1253.7 426.435L1252.09 440.005C1252.01 440.082 1252.01 440.197 1252.09 440.35C1252.17 440.427 1252.28 440.465 1252.43 440.465H1264.51C1265.28 440.465 1265.58 440.848 1265.43 441.615L1264.62 448.4ZM1267.2 521.885C1266.97 521.885 1266.78 521.77 1266.62 521.54C1266.47 521.31 1266.43 521.042 1266.51 520.735L1267.31 513.95C1267.47 513.183 1267.89 512.8 1268.58 512.8H1268.81C1271.8 512.723 1274.18 512.34 1275.94 511.65C1277.78 510.96 1279.35 509.657 1280.65 507.74C1282.03 505.9 1283.49 503.102 1285.02 499.345C1285.1 499.268 1285.1 499.153 1285.02 499C1285.02 498.77 1285.02 498.655 1285.02 498.655L1273.41 441.73V441.5C1273.41 440.81 1273.75 440.465 1274.44 440.465H1283.53C1284.14 440.465 1284.53 440.772 1284.68 441.385L1292.04 484.74C1292.04 484.893 1292.12 484.97 1292.27 484.97C1292.5 484.97 1292.65 484.893 1292.73 484.74L1310.44 441.385C1310.82 440.772 1311.32 440.465 1311.93 440.465H1320.79C1321.63 440.465 1321.86 440.887 1321.48 441.73L1293.65 503.025C1291.27 508.238 1289.09 512.148 1287.09 514.755C1285.1 517.362 1282.65 519.202 1279.73 520.275C1276.82 521.348 1272.87 521.885 1267.89 521.885H1267.2Z" fill="white"/>
<path d="M1215.41 268.626C1217.35 266.824 1218.79 265.53 1220.18 264.194C1249.65 235.954 1279.13 207.73 1308.53 179.422C1310.58 177.445 1312.62 176.689 1315.43 176.718C1328.4 176.853 1341.37 176.778 1355 176.778C1353.76 178.073 1352.92 179.025 1352 179.9C1321.3 209.192 1290.61 238.501 1259.83 267.71C1257.69 269.746 1257.32 270.746 1259.53 273.141C1293.45 309.925 1327.26 346.824 1361.09 383.698C1361.98 384.668 1362.85 385.654 1364.2 387.156C1352.82 387.156 1342.09 386.496 1331.48 387.358C1322.47 388.09 1316.85 384.806 1311.03 378.112C1279.67 342.048 1247.77 306.457 1215.9 270.526C1215.06 271.838 1215.43 273.204 1215.43 274.452C1215.41 310.757 1215.37 347.061 1215.49 383.366C1215.49 386.401 1214.9 387.341 1211.7 387.245C1203.09 386.986 1194.47 387.061 1185.86 387.214C1183.33 387.261 1182.38 386.73 1182.5 383.997C1182.73 378.768 1182.57 373.521 1182.57 368.281C1182.57 247.016 1182.59 125.749 1182.48 4.48513C1182.48 0.910464 1183.24 -0.124177 1186.91 0.0118232C1195.26 0.323823 1203.64 0.237151 1212 0.039818C1214.76 -0.0268486 1215.51 0.62113 1215.49 3.4678C1215.34 22.4305 1215.41 41.3945 1215.41 60.3571V263.964V268.626Z" fill="#2C96FB"/>
<path d="M254.252 391.706C231.296 390.571 209.38 382.158 192.751 362.315C189.29 358.185 186.722 353.499 184.691 348.498C183.942 346.651 184.007 345.71 186.142 344.886C195.191 341.391 204.148 337.665 213.179 334.119C213.898 333.837 215.114 332.343 215.788 334.459C219.992 347.633 230.336 353.878 242.627 357.511C253.708 360.787 264.833 360.621 275.488 355.633C288.141 349.71 294.337 336.567 290.772 323.751C288.996 317.369 284.679 312.995 279.367 309.478C270.376 303.523 260.295 299.833 250.368 295.854C238.32 291.027 226.544 285.717 216.116 277.83C195.531 262.261 189.534 241.307 195.151 217.07C200.668 193.27 216.676 178.786 240.268 173.983C266.897 168.561 290.004 176.482 308.993 195.997C311.433 198.505 313.256 201.495 314.911 204.59C315.745 206.147 315.961 207.113 314.025 208.087C305.692 212.285 297.424 216.615 289.164 220.954C287.943 221.595 287.309 221.558 286.548 220.265C277.516 204.93 256.559 202.227 242.656 206.961C224.696 213.077 220.416 238.175 235.103 250.709C241.533 256.195 249.247 259.479 256.857 262.901C267.405 267.641 278.307 271.605 288.478 277.175C297.503 282.118 305.884 287.898 312.475 295.954C332.299 320.185 327.161 357.861 301.336 377.355C288.104 387.345 272.983 391.515 254.252 391.706Z" fill="#2C96FB"/>
<path d="M6.74166 281.778C6.74166 247.966 6.78032 214.154 6.67099 180.343C6.66166 177.432 7.36432 176.631 10.303 176.703C18.915 176.915 27.5363 176.899 36.1483 176.708C38.9163 176.647 39.667 177.307 39.6577 180.162C39.5443 213.598 39.5843 247.035 39.5843 280.472C39.5843 314.783 39.5363 349.094 39.6643 383.404C39.6777 386.575 38.8457 387.315 35.7683 387.235C27.159 387.01 18.5363 387.039 9.92299 387.226C7.27232 387.283 6.66966 386.571 6.67766 383.96C6.77366 349.9 6.74166 315.839 6.74166 281.778Z" fill="#2C96FB"/>
<path d="M115.522 387.154C102.653 387.111 92.0766 376.538 92.1686 363.81C92.2632 351.047 102.883 340.684 115.809 340.746C128.803 340.807 139.334 351.168 139.351 363.907C139.369 376.808 128.718 387.196 115.522 387.154Z" fill="#5DF99C"/>
<path d="M45.8214 115.57C45.7867 127.627 35.4414 137.719 23.1374 137.701C10.56 137.681 0.0227042 127.577 3.74986e-05 115.518C-0.0226292 102.766 10.2334 92.8567 23.3694 92.9367C35.9854 93.014 45.8574 102.966 45.8214 115.57Z" fill="#2C96FB"/>
<path d="M482.225 358.995C439.248 358.752 405.162 324.351 405.386 281.442C405.608 238.836 440.216 204.682 482.902 204.939C525.897 205.198 559.976 239.595 559.745 282.495C559.514 325.107 524.932 359.236 482.225 358.995ZM571.13 216.992C551.365 190.435 524.672 175.518 491.668 172.754C458.616 169.984 430.054 180.916 405.382 203.542C405.382 195.236 405.27 187.626 405.446 180.023C405.505 177.48 404.968 176.64 402.248 176.706C393.885 176.904 385.509 176.963 377.15 176.691C373.546 176.575 372.426 177.292 372.433 181.234C372.572 270.695 372.54 360.156 372.54 449.619C372.54 469.831 372.585 490.044 372.484 510.256C372.47 512.808 373.04 513.686 375.749 513.628C384.237 513.448 392.737 513.383 401.221 513.648C404.645 513.755 405.473 512.807 405.464 509.406C405.344 461.244 405.382 413.082 405.382 364.919V360.646C452.804 405.783 522.604 398.275 560.994 359.084C598.628 320.668 603.3 260.218 571.13 216.992" fill="#2C96FB"/>
<path d="M998.334 358.995C955.586 358.951 921.495 324.711 921.552 281.875C921.61 239.031 955.832 204.822 998.52 204.939C1041.04 205.055 1075.42 239.671 1075.29 282.249C1075.16 324.621 1040.65 359.039 998.334 358.995ZM1142.86 362.509C1142.9 360.439 1142.17 360.01 1140.3 360.082C1136.8 360.218 1133.3 360.171 1129.81 360.11C1120.12 359.941 1113.2 354.939 1110.03 345.845C1108.33 340.941 1108.12 335.854 1108.12 330.718C1108.14 280.558 1108.11 230.398 1108.2 180.238C1108.2 177.529 1107.68 176.626 1104.77 176.699C1096.16 176.918 1087.54 176.887 1078.93 176.715C1076.15 176.661 1075.1 177.187 1075.2 180.273C1075.47 187.823 1075.29 195.39 1075.29 203.258C1029.68 158.981 959.412 164.642 920.174 204.905C882.039 244.034 878.023 305.526 911.188 348.569C927.654 369.938 949.119 383.821 975.538 389.21C1015.93 397.449 1049.82 384.461 1078.51 355.737C1083.85 370.97 1092.76 382.53 1107.85 388.186C1118.49 392.17 1129.37 393.499 1140.29 388.813C1141.88 388.13 1142.9 387.406 1142.87 385.341C1142.73 377.733 1142.74 370.118 1142.86 362.509" fill="#2C96FB"/>
<path d="M737.507 257.51C715.536 257.51 693.568 257.464 671.599 257.566C668.726 257.579 667.899 257.287 669.091 254.183C680.44 224.663 708.943 204.976 740.648 204.939C772.287 204.9 800.296 224.119 811.592 253.626C812.031 254.767 812.395 255.938 812.935 257.51H737.507ZM848.796 262.802C838.015 203.259 783.272 164.327 723.619 173.67C657.487 184.024 616.143 250.42 635.851 314.616C652.466 368.735 708.998 401.852 764.219 389.09C804.222 379.844 830.987 355.124 845.239 316.714C846.348 313.726 845.856 312.99 842.627 313.055C833.14 313.251 823.646 313.16 814.155 313.094C812.366 313.082 811.354 313.456 810.44 315.272C794.255 347.496 762.356 363.698 726.804 357.876C693.608 352.442 667.094 324.074 663.914 290.783C663.598 287.475 664.4 286.73 667.727 286.746C697.448 286.894 727.17 286.831 756.892 286.831C786.864 286.831 816.835 286.799 846.807 286.891C849.364 286.899 850.195 286.178 850.362 283.646C850.824 276.607 850.038 269.66 848.796 262.802" fill="#2C96FB"/>
</svg>
