<svg xmlns="http://www.w3.org/2000/svg" viewBox="0 0 192.4 190.72"><defs><style>.cls-1{fill:#5df99c;}.cls-2{fill:#fff;}</style></defs><title>Recurso 1</title><g id="Capa_2" data-name="Capa 2"><g id="Capa_1-2" data-name="Capa 1"><path class="cls-1" d="M105.92,7.15l80.67,77s10.53,7.82,3.23,32.67-26.26,66.52-26.26,66.52-3.72,10.38-12.28.45-50.82-45.28-50.82-45.28L43.12,83.2S30.4,71.37,12.35,82.27l71-76.34S95.25-4.75,105.92,7.15Z"/><path class="cls-2" d="M79.54,6.47,4.68,89.11s-9.93,8.56-.86,32.81,31,64.44,31,64.44,4.47,10.09,12.28-.44,47.4-48.85,47.4-48.85L147.7,77.76S159.53,65,178.32,74.6L102,3.61S89.32-6.18,79.54,6.47Z"/></g></g></svg>